<svg xmlns="http://www.w3.org/2000/svg" viewBox="0 0 60 40" width="60" height="40">
  <rect width="60" height="40" fill="#DE2910"/>
  <g fill="#FFDE00">
    <!-- Large star -->
    <polygon points="12,6 13.2,9.6 17,9.6 14.4,12 15.6,15.6 12,13.2 8.4,15.6 9.6,12 7,9.6 10.8,9.6"/>
    <!-- Small stars -->
    <polygon points="21,4 21.4,5.2 22.6,5.2 21.8,6 22.2,7.2 21,6.4 19.8,7.2 20.2,6 19.4,5.2 20.6,5.2"/>
    <polygon points="24,8 24.4,9.2 25.6,9.2 24.8,10 25.2,11.2 24,10.4 22.8,11.2 23.2,10 22.4,9.2 23.6,9.2"/>
    <polygon points="24,14 24.4,15.2 25.6,15.2 24.8,16 25.2,17.2 24,16.4 22.8,17.2 23.2,16 22.4,15.2 23.6,15.2"/>
    <polygon points="21,18 21.4,19.2 22.6,19.2 21.8,20 22.2,21.2 21,20.4 19.8,21.2 20.2,20 19.4,19.2 20.6,19.2"/>
  </g>
  <!-- Add border for consistency -->
  <rect width="60" height="40" fill="none" stroke="#ccc" stroke-width="0.5"/>
</svg>
