<svg xmlns="http://www.w3.org/2000/svg" viewBox="0 0 60 40" width="60" height="40">
  <rect width="60" height="40" fill="#B22234"/>
  <rect width="60" height="3.08" y="3.08" fill="white"/>
  <rect width="60" height="3.08" y="9.23" fill="white"/>
  <rect width="60" height="3.08" y="15.38" fill="white"/>
  <rect width="60" height="3.08" y="21.54" fill="white"/>
  <rect width="60" height="3.08" y="27.69" fill="white"/>
  <rect width="60" height="3.08" y="33.85" fill="white"/>
  <rect width="60" height="3.08" y="6.15" fill="white"/>
  <rect width="60" height="3.08" y="12.31" fill="white"/>
  <rect width="60" height="3.08" y="18.46" fill="white"/>
  <rect width="60" height="3.08" y="24.62" fill="white"/>
  <rect width="60" height="3.08" y="30.77" fill="white"/>
  <rect width="60" height="3.08" y="36.92" fill="white"/>
  <rect width="24" height="21.54" fill="#3C3B6E"/>
  <g fill="white">
    <circle cx="3" cy="2.5" r="0.8"/>
    <circle cx="7" cy="2.5" r="0.8"/>
    <circle cx="11" cy="2.5" r="0.8"/>
    <circle cx="15" cy="2.5" r="0.8"/>
    <circle cx="19" cy="2.5" r="0.8"/>
    <circle cx="23" cy="2.5" r="0.8"/>
    <circle cx="5" cy="5" r="0.8"/>
    <circle cx="9" cy="5" r="0.8"/>
    <circle cx="13" cy="5" r="0.8"/>
    <circle cx="17" cy="5" r="0.8"/>
    <circle cx="21" cy="5" r="0.8"/>
    <circle cx="3" cy="7.5" r="0.8"/>
    <circle cx="7" cy="7.5" r="0.8"/>
    <circle cx="11" cy="7.5" r="0.8"/>
    <circle cx="15" cy="7.5" r="0.8"/>
    <circle cx="19" cy="7.5" r="0.8"/>
    <circle cx="23" cy="7.5" r="0.8"/>
    <circle cx="5" cy="10" r="0.8"/>
    <circle cx="9" cy="10" r="0.8"/>
    <circle cx="13" cy="10" r="0.8"/>
    <circle cx="17" cy="10" r="0.8"/>
    <circle cx="21" cy="10" r="0.8"/>
    <circle cx="3" cy="12.5" r="0.8"/>
    <circle cx="7" cy="12.5" r="0.8"/>
    <circle cx="11" cy="12.5" r="0.8"/>
    <circle cx="15" cy="12.5" r="0.8"/>
    <circle cx="19" cy="12.5" r="0.8"/>
    <circle cx="23" cy="12.5" r="0.8"/>
    <circle cx="5" cy="15" r="0.8"/>
    <circle cx="9" cy="15" r="0.8"/>
    <circle cx="13" cy="15" r="0.8"/>
    <circle cx="17" cy="15" r="0.8"/>
    <circle cx="21" cy="15" r="0.8"/>
    <circle cx="3" cy="17.5" r="0.8"/>
    <circle cx="7" cy="17.5" r="0.8"/>
    <circle cx="11" cy="17.5" r="0.8"/>
    <circle cx="15" cy="17.5" r="0.8"/>
    <circle cx="19" cy="17.5" r="0.8"/>
    <circle cx="23" cy="17.5" r="0.8"/>
    <circle cx="5" cy="20" r="0.8"/>
    <circle cx="9" cy="20" r="0.8"/>
    <circle cx="13" cy="20" r="0.8"/>
    <circle cx="17" cy="20" r="0.8"/>
    <circle cx="21" cy="20" r="0.8"/>
  </g>
  <!-- Add border for consistency -->
  <rect width="60" height="40" fill="none" stroke="#ccc" stroke-width="0.5"/>
</svg>
